<?xml version="1.0" encoding="utf-8" standalone="yes"?>
<!DOCTYPE svg PUBLIC "-//W3C//DTD SVG 1.1//EN" "http://www.w3.org/Graphics/SVG/1.1/DTD/svg11.dtd">
<svg width="864" height="660" viewBox="0 0 864 660" style="fill:none;stroke:none;fill-rule:evenodd;clip-rule:evenodd;stroke-linecap:round;stroke-linejoin:round;stroke-miterlimit:1.5;" version="1.1" xmlns="http://www.w3.org/2000/svg" xmlns:xlink="http://www.w3.org/1999/xlink"><style class="text-font-style fontImports" data-font-family="Roboto">@import url('https://fonts.googleapis.com/css2?family=Roboto:wght@400;700&amp;display=block');</style><g id="items" style="isolation: isolate"><g id="blend" style="mix-blend-mode: normal"><g id="g-root-cp_5_g-5_i0vktnsws0sj-fill" data-item-order="-460192" transform="translate(230.77301025390625, 138.5570068359375)"><g id="cp_5_g-5_i0vktnsws0sj-fill" stroke="none" fill="#ba5de5"><g><path d="M 107.6701 193.918C 108.2996 191.201 109.0522 188.489 109.931 185.787C 119.813 155.408 143.406 133.321 171.628 124.15L 179.029 146.988L 217.612 71.4143L 134.64 10L 142.034 32.8185C 85.5883 51.1599 38.4023 95.3335 18.6391 156.092C 14.1431 169.914 11.2997 183.877 10 197.767L 69.2288 155.469L 107.6701 193.918Z"></path></g></g></g><g id="g-root-cp_4_g-4_958kkrsws1l9-fill" data-item-order="-460188" transform="translate(206, 284.0250244140625)"><g id="cp_4_g-4_958kkrsws1l9-fill" stroke="none" fill="#de58a9"><g><path d="M 150.009 246.348L 128.112 176.98L 176.547 152.32C 147.557 134.937 129.964 103.435 129.974 70.0035L 154 70.0058L 94.0058 10L 10 69.9918L 33.948 69.9941C 33.9255 145.26 78.5144 215.637 150.009 246.348Z"></path></g></g></g><g id="g-root-cp_3_g-3_4pf2gbsws2dj-fill" data-item-order="-460184" transform="translate(324.1090087890625, 412.50799560546875)"><g id="cp_3_g-3_4pf2gbsws2dj-fill" stroke="none" fill="#e55753"><g><path d="M 179.461 67.6312L 170.936 13.9446C 146.332 35.3255 111.447 43.6398 78.193 32.823L 85.6168 10L 10 48.498L 41.0743 146.938L 48.498 124.115C 123.739 148.589 203.154 124.094 252.25 68.1899L 179.461 67.6312Z"></path></g></g></g><g id="g-root-cp_2_g-2_9lkbvsws35t-fill" data-item-order="-460180" transform="translate(480.2659912109375, 245.97698974609375)"><g id="cp_2_g-2_9lkbvsws35t-fill" stroke="none" fill="#de8431"><g><path d="M 23.3069 234.163L 10 150.36L 29.443 164.474C 35.2 156.54 39.83 147.583 43.0258 137.758C 50.4908 114.808 48.8441 91.0816 40.0791 70.4939L 93.786 78.9904L 116.806 10C 144.023 55.8565 152.109 112.757 134.318 167.453C 127.926 187.103 118.666 205.018 107.1518 220.886L 126.532 234.955L 23.3069 234.163Z"></path></g></g></g><g id="g-root-cp_1_g-1_1q5phrfswtf63-fill" data-item-order="-460176" transform="translate(379.89801025390625, 151.98602294921875)"><g id="cp_1_g-1_1q5phrfswtf63-fill" stroke="none" fill="#e0cb15"><g><path d="M 10 14.6933C 42.5543 7.3463 77.4482 8.3958 111.488 19.4681C 151.566 32.5047 184.428 57.4734 207.42 89.1612L 226.823 75.0589L 194.15 172.98L 110.339 159.721L 129.759 145.606C 118.263 129.763 101.8321 117.278 81.7929 110.76C 69.1375 106.6435 56.2458 105.2978 43.7746 106.3885L 68.4867 57.9843L 10 14.6933Z"></path></g></g></g><g id="g-root-tx_edgex_1lpvzmzswtfyd-fill" data-item-order="0" transform="translate(284, 38)"><g id="tx_edgex_1lpvzmzswtfyd-fill" stroke="none" fill="#484848"><g><text style="font: 20px Roboto, sans-serif; white-space: pre;" font-size="20px" font-family="Roboto, sans-serif"><tspan x="17.66" y="34" dominant-baseline="ideographic">EdgeX를 통한 데이터 처리 주기</tspan></text></g></g></g><g id="g-root-ic_2_1uuw46jswuuiw-fill" data-item-order="0" transform="translate(710, 110)"></g><g id="g-root-tx__mg2luzswuupy-fill" data-item-order="0" transform="translate(680, 170)"><g id="tx__mg2luzswuupy-fill" stroke="none" fill="#e0cb15"><g><text style="font: bold 20px Roboto, sans-serif; white-space: pre;" font-weight="bold" font-size="20px" font-family="Roboto, sans-serif"><tspan x="15.51" y="34" dominant-baseline="ideographic">사용자 요청</tspan></text></g></g></g><g id="g-root-ic_sels_13z8g8bswtf5s-fill" data-item-order="0" transform="translate(86, 194)"></g><g id="g-root-tx__94m3hnswuwav-fill" data-item-order="0" transform="translate(662, 206)"><g id="tx__94m3hnswuwav-fill" stroke="none" fill="#46432d"><g><text style="font: 15px Roboto, sans-serif; white-space: pre;" font-size="15px" font-family="Roboto, sans-serif"><tspan x="16.17" y="28" dominant-baseline="ideographic">사용자가 데이터를 요</tspan><tspan x="52.42" y="46" dominant-baseline="ideographic">청합니다.</tspan></text></g></g></g><g id="g-root-tx__1cu8ze3swtgr2-fill" data-item-order="0" transform="translate(38, 254)"><g id="tx__1cu8ze3swtgr2-fill" stroke="none" fill="#ba5de5"><g><text style="font: bold 20px Roboto, sans-serif; white-space: pre;" font-weight="bold" font-size="20px" font-family="Roboto, sans-serif"><tspan x="15.11" y="34" dominant-baseline="ideographic">사용자에게 응답</tspan></text></g></g></g><g id="g-root-tx__18efh9nswthjb-fill" data-item-order="0" transform="translate(38, 290)"><g id="tx__18efh9nswthjb-fill" stroke="none" fill="#4f3d58"><g><text style="font: 15px Roboto, sans-serif; white-space: pre;" font-size="15px" font-family="Roboto, sans-serif"><tspan x="16.17" y="28" dominant-baseline="ideographic">사용자가 응답을 받습</tspan><tspan x="66.22" y="46" dominant-baseline="ideographic">니다.</tspan></text></g></g></g><g id="g-root-ic_1_1upwbhnsww8i4-fill" data-item-order="0" transform="translate(710, 278)"></g><g id="g-root-tx_xr7_8zmasrswwaa2-fill" data-item-order="0" transform="translate(692, 338)"><g id="tx_xr7_8zmasrswwaa2-fill" stroke="none" fill="#de8431"><g><text style="font: bold 20px Roboto, sans-serif; white-space: pre;" font-weight="bold" font-size="20px" font-family="Roboto, sans-serif"><tspan x="12.62" y="34" dominant-baseline="ideographic">XR7 처리</tspan></text></g></g></g><g id="g-root-ic_conv_1utn60bswtez0-fill" data-item-order="0" transform="translate(86, 362)"></g><g id="g-root-tx_xr7_4kf9rfsww7wj-fill" data-item-order="0" transform="translate(662, 374)"><g id="tx_xr7_4kf9rfsww7wj-fill" stroke="none" fill="#4c4034"><g><text style="font: 15px Roboto, sans-serif; white-space: pre;" font-size="15px" font-family="Roboto, sans-serif"><tspan x="16.44" y="28" dominant-baseline="ideographic">XR7이 요청을 처리합</tspan><tspan x="66.22" y="46" dominant-baseline="ideographic">니다.</tspan></text></g></g></g><g id="g-root-tx__v9u6ujswthj6-fill" data-item-order="0" transform="translate(68, 422)"><g id="tx__v9u6ujswthj6-fill" stroke="none" fill="#de58a9"><g><text style="font: bold 20px Roboto, sans-serif; white-space: pre;" font-weight="bold" font-size="20px" font-family="Roboto, sans-serif"><tspan x="12.71" y="34" dominant-baseline="ideographic">응답 수신</tspan></text></g></g></g><g id="g-root-tx_api_93d5bfswtgqz-fill" data-item-order="0" transform="translate(44, 458)"><g id="tx_api_93d5bfswtgqz-fill" stroke="none" fill="#573e4d"><g><text style="font: 15px Roboto, sans-serif; white-space: pre;" font-size="15px" font-family="Roboto, sans-serif"><tspan x="12.31" y="28" dominant-baseline="ideographic">API가 응답을 보냅니</tspan><tspan x="67.11" y="46" dominant-baseline="ideographic">다.</tspan></text></g></g></g><g id="g-root-ic_clou_1uo0w8bswxnnq-fill" data-item-order="0" transform="translate(710, 446)"></g><g id="g-root-tx_api_8xqvjfswxpfo-fill" data-item-order="0" transform="translate(692, 506)"><g id="tx_api_8xqvjfswxpfo-fill" stroke="none" fill="#e55753"><g><text style="font: bold 20px Roboto, sans-serif; white-space: pre;" font-weight="bold" font-size="20px" font-family="Roboto, sans-serif"><tspan x="15.02" y="34" dominant-baseline="ideographic">API 호출</tspan></text></g></g></g><g id="g-root-tx_xr7api_2qcdnswxn2l-fill" data-item-order="0" transform="translate(668, 542)"><g id="tx_xr7api_2qcdnswxn2l-fill" stroke="none" fill="#543a3a"><g><text style="font: 15px Roboto, sans-serif; white-space: pre;" font-size="15px" font-family="Roboto, sans-serif"><tspan x="12.57" y="28" dominant-baseline="ideographic">XR7이 API를 호출합</tspan><tspan x="60.23" y="46" dominant-baseline="ideographic">니다.</tspan></text></g></g></g><g id="g-root-cp_5_g-5_i0vktnsws0sj-stroke" data-item-order="-460192" transform="translate(230.77301025390625, 138.5570068359375)"><g id="cp_5_g-5_i0vktnsws0sj-stroke" fill="none" stroke-linecap="round" stroke-linejoin="round" stroke-miterlimit="4" stroke="#ffffff" stroke-width="2"><g><path d="M 107.6701 193.918C 108.2996 191.2011 109.0522 188.4886 109.931 185.7869C 119.8126 155.4076 143.4056 133.3209 171.6285 124.1502L 179.0286 146.9878L 217.6117 71.4143L 134.6401 10L 142.034 32.8185C 85.5884 51.1599 38.4023 95.3335 18.6391 156.0919C 14.1431 169.9139 11.2997 183.8768 10 197.7668L 69.2288 155.4692L 107.6701 193.918Z"></path></g></g></g><g id="g-root-cp_4_g-4_958kkrsws1l9-stroke" data-item-order="-460188" transform="translate(206, 284.0250244140625)"><g id="cp_4_g-4_958kkrsws1l9-stroke" fill="none" stroke-linecap="round" stroke-linejoin="round" stroke-miterlimit="4" stroke="#ffffff" stroke-width="2"><g><path d="M 150.0093 246.3484L 128.1118 176.9796L 176.5473 152.3202C 147.5572 134.9374 129.964 103.435 129.9739 70.0035L 154 70.0058L 94.0058 10L 10 69.9918L 33.948 69.9941C 33.9255 145.2599 78.5144 215.6369 150.0093 246.3484Z"></path></g></g></g><g id="g-root-cp_3_g-3_4pf2gbsws2dj-stroke" data-item-order="-460184" transform="translate(324.1090087890625, 412.50799560546875)"><g id="cp_3_g-3_4pf2gbsws2dj-stroke" fill="none" stroke-linecap="round" stroke-linejoin="round" stroke-miterlimit="4" stroke="#ffffff" stroke-width="2"><g><path d="M 179.4609 67.6312L 170.9362 13.9446C 146.3322 35.3255 111.4473 43.6398 78.193 32.823L 85.6168 10L 10 48.498L 41.0743 146.9378L 48.498 124.1149C 123.7392 148.589 203.1544 124.0935 252.2501 68.1899L 179.4609 67.6312Z"></path></g></g></g><g id="g-root-cp_2_g-2_9lkbvsws35t-stroke" data-item-order="-460180" transform="translate(480.2659912109375, 245.97698974609375)"><g id="cp_2_g-2_9lkbvsws35t-stroke" fill="none" stroke-linecap="round" stroke-linejoin="round" stroke-miterlimit="4" stroke="#ffffff" stroke-width="2"><g><path d="M 23.3069 234.1627L 10 150.3598L 29.443 164.4742C 35.2 156.5403 39.83 147.5826 43.0258 137.7576C 50.4908 114.8079 48.8441 91.0816 40.0791 70.4939L 93.786 78.9904L 116.8057 10C 144.0228 55.8565 152.1087 112.7574 134.3177 167.4526C 127.9259 187.1028 118.6658 205.0183 107.1518 220.8863L 126.5317 234.955L 23.3069 234.1627Z"></path></g></g></g><g id="g-root-cp_1_g-1_1q5phrfswtf63-stroke" data-item-order="-460176" transform="translate(379.89801025390625, 151.98602294921875)"><g id="cp_1_g-1_1q5phrfswtf63-stroke" fill="none" stroke-linecap="round" stroke-linejoin="round" stroke-miterlimit="4" stroke="#ffffff" stroke-width="2"><g><path d="M 10 14.6933C 42.5543 7.3463 77.4482 8.3959 111.4879 19.4681C 151.5664 32.5047 184.4284 57.4734 207.4199 89.1612L 226.8227 75.0589L 194.15 172.9797L 110.3394 159.7208L 129.7589 145.6065C 118.2631 129.7626 101.8321 117.2783 81.7929 110.76C 69.1375 106.6435 56.2458 105.2978 43.7746 106.3885L 68.4867 57.9843L 10 14.6933Z"></path></g></g></g><g id="g-root-tx_edgex_1lpvzmzswtfyd-stroke" data-item-order="0" transform="translate(284, 38)"></g><g id="g-root-ic_2_1uuw46jswuuiw-stroke" data-item-order="0" transform="translate(710, 110)"><g id="ic_2_1uuw46jswuuiw-stroke" fill="none" stroke-linecap="round" stroke-linejoin="round" stroke-miterlimit="4" stroke="#e0cb15" stroke-width="2"><g><path d="M 10 10M 55.707001 48.744202L 35.648399 48.744202M 10 10M 42.515598 41.873001L 35.647202 48.741402L 42.515598 55.609798M 28.96664 30.162399C 31.639601 30.162399 33.806602 27.99538 33.806602 25.322361C 33.806602 22.64934 31.639601 20.48242 28.96664 20.48242C 26.293619 20.48242 24.126701 22.64934 24.126701 25.322361C 24.126701 27.99538 26.293619 30.162399 28.96664 30.162399ZM 37.0826 37.6824C 36.023003 34.2104 32.740997 31.607401 28.971001 31.607401C 25.201 31.607401 21.919079 34.2104 20.859379 37.6824M 10 10M 29.863159 45.7714L 14.29296 45.7714C 13.1884 45.7714 12.29296 44.875999 12.29296 43.7714L 12.29296 14.38868C 12.29296 13.2841 13.1884 12.38868 14.29296 12.38868L 43.6758 12.38868C 44.780399 12.38868 45.6758 13.2841 45.6758 14.38868L 45.6758 33.857002"></path></g></g></g><g id="g-root-tx__mg2luzswuupy-stroke" data-item-order="0" transform="translate(680, 170)"></g><g id="g-root-ic_sels_13z8g8bswtf5s-stroke" data-item-order="0" transform="translate(86, 194)"><g id="ic_sels_13z8g8bswtf5s-stroke" fill="none" stroke-linecap="round" stroke-linejoin="round" stroke-miterlimit="4" stroke="#ba5de5" stroke-width="2"><g><path d="M 41.099998 25.6192C 40.5 24.6192 40.099998 23.419201 40.099998 22.019199L 40.099998 18.419201C 40.099998 15.4192 41.900002 12.6192 44.700001 11.819192C 49.299999 10.419192 53.700001 13.819201 53.700001 18.2192L 53.700001 22.019199C 53.700001 24.019199 52.900002 25.819199 51.5 27.019199M 40.099998 21.41954C 40.099998 21.41954 44.700001 22.41954 48.099998 18.019539C 49.700001 19.81954 51.5 20.41954 53.700001 19.81954M 10 10M 49.5 35.019402L 45.900002 25.81934L 55.099998 29.41934L 49.5 35.019402ZM 10 10M 52.299999 32.2192L 56.5 36.419201M 30.5 34.5C 30.5 37.900002 27.9 40.5 24.5 40.5C 21.1 40.5 18.5 37.900002 18.5 34.5L 18.5 31.5C 18.5 28.1 21.1 25.5 24.5 25.5C 27.9 25.5 30.5 28.1 30.5 31.5L 30.5 34.5ZM 22.5 40.187599L 22.5 43.5C 22.5 43.5 18.5 43.5 16.5 45.5C 16.5 45.5 18.5 51.5 23.5 51.5C 26.299999 51.5 27.1 49.299999 28.700001 47.5L 28.700001 38.8438M 36.5 44.5C 38.5 46.700001 39.5 49.5 39.5 52.5L 39.5 56.5M 16.5 45.5C 16.5 45.5 11.5 48.5 11.5 56.5M 28.8999 47.5C 32.900002 43.5 36.5 44.5 36.5 44.5L 36.5 33.5C 36.5 29.08172 32.918198 25.5 28.499901 25.5L 24.5 25.5"></path></g></g></g><g id="g-root-tx__94m3hnswuwav-stroke" data-item-order="0" transform="translate(662, 206)"></g><g id="g-root-tx__1cu8ze3swtgr2-stroke" data-item-order="0" transform="translate(38, 254)"></g><g id="g-root-tx__18efh9nswthjb-stroke" data-item-order="0" transform="translate(38, 290)"></g><g id="g-root-ic_1_1upwbhnsww8i4-stroke" data-item-order="0" transform="translate(710, 278)"><g id="ic_1_1upwbhnsww8i4-stroke" fill="none" stroke-linecap="round" stroke-linejoin="round" stroke-miterlimit="4" stroke="#de8431" stroke-width="2"><g><path d="M 33.900002 37C 35.556801 37 36.900002 35.656799 36.900002 34C 36.900002 32.343201 35.556801 31 33.900002 31C 32.243 31 30.9 32.343201 30.9 34C 30.9 35.656799 32.243 37 33.900002 37ZM 27.500099 44C 24.3001 41.799999 22.1001 38.200001 22.1001 34C 22.1001 27.4 27.500099 22 34.099998 22C 37.5 22 40.5 23.4 42.5 25.6L 36.099998 31.799601M 45.900002 34C 45.900002 34.799999 45.900002 35.599998 45.700001 36.400002M 42.700001 42.1992C 40.5 44.599201 37.5 45.999199 33.900002 45.999199M 51 47C 51 49.200001 49.200001 51 47 51L 21 51C 18.799999 51 17 49.200001 17 47L 17 21C 17 18.799999 18.799999 17 21 17L 47 17C 49.200001 17 51 18.799999 51 21L 51 47ZM 11.5 20.5L 17 20.5M 11.5 29.5L 17 29.5M 11.5 38.5L 17 38.5M 51 29.5L 56.5 29.5M 51 38.5L 56.5 38.5M 11.5 47.5L 17 47.5M 56.5 20.5L 51 20.5M 56.5 47.5L 51 47.5M 47.399799 56.5L 47.399799 51M 38.466599 56.5L 38.466599 51M 29.533319 56.5L 29.533319 51M 38.466599 17L 38.466599 11.5M 29.533319 17L 29.533319 11.5M 20.6001 56.5L 20.6001 51M 47.399799 11.5L 47.399799 17M 20.6001 11.5L 20.6001 17"></path></g></g></g><g id="g-root-tx_xr7_8zmasrswwaa2-stroke" data-item-order="0" transform="translate(692, 338)"></g><g id="g-root-ic_conv_1utn60bswtez0-stroke" data-item-order="0" transform="translate(86, 362)"><g id="ic_conv_1utn60bswtez0-stroke" fill="none" stroke-linecap="round" stroke-linejoin="round" stroke-miterlimit="4" stroke="#de58a9" stroke-width="2"><g><path d="M 15.72798 31.000601L 15.72798 17.958C 15.72798 15.77212 17.5 14.00012 19.685879 14.00012L 32.845802 14.00012L 48.268799 14C 50.454601 14 52.226601 15.771999 52.226601 17.95788L 52.226601 20.413761M 52.226601 29.435419L 52.226601 42.466599C 52.226601 44.652599 50.454601 46.424599 48.268799 46.424599L 29.2852 46.424599L 18.831699 53.645802C 17.51902 54.552601 15.72798 53.612999 15.72798 52.017601L 15.72798 39.418999M 11.679688 28.01368L 15.81226 32.146202L 19.944839 28.01368M 10 10M 56.321999 32.146L 52.1894 28.01342L 48.056801 32.146"></path></g></g></g><g id="g-root-tx_xr7_4kf9rfsww7wj-stroke" data-item-order="0" transform="translate(662, 374)"></g><g id="g-root-tx__v9u6ujswthj6-stroke" data-item-order="0" transform="translate(68, 422)"></g><g id="g-root-tx_api_93d5bfswtgqz-stroke" data-item-order="0" transform="translate(44, 458)"></g><g id="g-root-ic_clou_1uo0w8bswxnnq-stroke" data-item-order="0" transform="translate(710, 446)"><g id="ic_clou_1uo0w8bswxnnq-stroke" fill="none" stroke-linecap="round" stroke-linejoin="round" stroke-miterlimit="4" stroke="#e55753" stroke-width="2"><g><path d="M 49.534 56.731998L 49.534 43.664001M 46.919998 43.664001L 52.147999 43.664001M 46.919998 56.731998L 52.147999 56.731998M 32.237999 56.731998L 32.237999 51.504002M 32.237999 51.504002L 36.16 51.504002C 38.324745 51.5037 40.07946 49.748745 40.07946 47.584C 40.07946 45.419254 38.324745 43.664299 36.16 43.664001L 32.237999 43.664001ZM 14.941999 56.731998L 16.417999 46.894001C 16.713694 45.051308 18.303732 43.696075 20.17 43.696075C 22.03627 43.696075 23.626307 45.051308 23.922001 46.894001L 25.4 56.731998M 15.628 52.158001L 24.712 52.158001M 57 29.268C 57.00251 26.553617 55.899284 23.955311 53.944599 22.071943C 51.98991 20.188576 49.352413 19.182644 46.639999 19.285999C 43.916706 13.503402 37.61792 10.304704 31.342236 11.517374C 25.066551 12.730043 20.412907 18.045113 20.040001 24.426001C 17.828627 23.962803 15.526266 24.520912 13.772458 25.945301C 12.01865 27.369688 11.000196 29.508636 11 31.768C 11 39.388 19 39.267998 19 39.267998L 48 39.267998C 48 39.267998 57 38.096001 57 29.268Z"></path></g></g></g><g id="g-root-tx_api_8xqvjfswxpfo-stroke" data-item-order="0" transform="translate(692, 506)"></g><g id="g-root-tx_xr7api_2qcdnswxn2l-stroke" data-item-order="0" transform="translate(668, 542)"></g></g></g><path id="w1cvizhnu0nnd0" d="M65.283 12.757a.35.35 0 0 0 .584.157l5.203-5.141-6.183 3.523.396 1.461zm-2.216-11.7a.35.35 0 0 0-.522.305v3.111l3.276-1.868-2.754-1.548zm3.728 2.105l-4.25 2.421v2.445l6.391-3.644-2.141-1.222zm4.708 3.303a.35.35 0 0 0 0-.609l-1.592-.9-7.365 4.199v1.782a.35.35 0 0 0 .523.305l8.435-4.777z M44.542 2.513c0-.433.355-.783.792-.783s.792.35.792.783-.355.783-.792.783-.792-.35-.792-.783zm59.171 0c0-.433.355-.783.792-.783s.792.35.792.783-.355.783-.792.783-.792-.35-.792-.783zm-85.951 7.636h-1.27v-.487c-.276.201-.864.609-1.881.609-1.202 0-2.274-.794-2.137-2.078.118-1.106 1.153-1.584 1.848-1.727l2.17-.345c0-.539-.29-.956-1.064-1.006s-1.21.305-1.571 1.017l-1.124-.605c1.218-2.631 5.029-1.764 5.029.414v4.207zm-1.27-2.86c.006.396-.062 1.112-.819 1.59-.587.37-1.841.299-1.903-.395-.049-.555.461-.791.906-.898l1.816-.297zm72.662 2.86h-1.27v-.487c-.276.201-.864.609-1.881.609-1.202 0-2.274-.794-2.137-2.078.118-1.106 1.153-1.584 1.848-1.727l2.17-.345c0-.539-.29-.956-1.064-1.006s-1.21.305-1.571 1.017l-1.124-.605c1.218-2.631 5.029-1.764 5.029.414v4.207zm-1.27-2.86c.006.396-.062 1.112-.82 1.59-.587.37-1.841.299-1.903-.395-.049-.555.461-.791.906-.898l1.816-.297zM99.096 10.149H97.85v-8.45h1.246v4.895l2.68-2.559h1.738l-2.633 2.535 2.715 3.578h-1.556l-2.077-2.707-.867.844v1.863zm6.053-6.114h-1.255v6.113h1.255V4.035zm-59.2 0h-1.255v6.113h1.255V4.035zm5.584 6.113V1.697h1.255v2.695c.361-.346 1-.485 1.47-.485 1.452 0 2.477 1.082 2.457 2.448v3.792h-1.27v-3.68c0-.408-.214-1.339-1.315-1.339-.968 0-1.342.756-1.342 1.339v3.681h-1.255zm-4.76-4.894V4.039h.621a.45.45 0 0 0 .45-.45v-.855h1.251v1.305h1.309v1.215h-1.309v3.109c0 .293.105.664.648.664.365 0 .531-.035.736-.07v1.137s-.361.113-.857.113c-1.398 0-1.777-1.051-1.777-1.788V5.254h-1.071zM36.528 4.039h-1.394l2.191 6.106h1.125l1.234-3.918 1.238 3.918h1.129l2.188-6.106h-1.383l-1.359 3.93-1.256-3.93h-1.124l-1.242 3.957-1.348-3.957zM26.212 7.141c-.02 1.566 1.187 3.129 3.223 3.129 1.566 0 2.383-.918 2.734-1.719L31.172 8c-.315.399-.801 1.094-1.738 1.094-1.145 0-1.825-.781-1.891-1.52h4.625c.074-.284.148-.995-.03-1.559-.336-1.064-1.221-2.102-2.839-2.102s-3.088 1.152-3.088 3.227zm1.363-.75h3.348c-.055-.43-.566-1.301-1.623-1.301a1.79 1.79 0 0 0-1.725 1.301zm-8.758.75c.038 1.758 1.277 3.133 3.145 3.133 1.074 0 1.723-.477 1.961-.672v.547h1.242V1.703h-1.258v2.888c-.414-.36-1.062-.68-1.93-.68-1.91 0-3.198 1.473-3.16 3.23zm1.309-.08c0 1.119.723 1.978 1.836 1.978a1.88 1.88 0 0 0 1.94-1.904c0-1.371-1.011-1.99-1.972-1.99s-1.805.798-1.805 1.916zm76.683-.028C96.771 5.275 95.532 3.9 93.664 3.9c-1.074 0-1.723.477-1.961.672v-.547h-1.242v8.22h1.258V9.583c.414.36 1.063.68 1.93.68 1.91 0 3.198-1.473 3.16-3.23zm-1.309.08c0-1.119-.723-1.978-1.836-1.978a1.88 1.88 0 0 0-1.94 1.904c0 1.371 1.011 1.99 1.972 1.99S95.5 8.231 95.5 7.113zM106.441 10.173V4.036h1.254v.382c.361-.346 1-.485 1.47-.485 1.452 0 2.477 1.082 2.457 2.448v3.792h-1.27V6.492c0-.408-.214-1.339-1.315-1.339-.969 0-1.342.756-1.342 1.339v3.681h-1.254zm-30.383-.021V1.824h1.084l4.215 5.777V1.824h1.32v8.328h-1.094l-4.207-5.796v5.796h-1.319zM5.24 10.149H4V2.377h1.014l2.664 3.597 2.654-3.592h1.03v7.766h-1.256V4.762L7.678 8.068 5.24 4.742v5.407z" transform="translate(20, 626)" fill="#80808088" stroke="none"></path></svg>